HIERARCHY
ROOT hip
{
	OFFSET	0.00  0.00  0.00 
	CHANNELS 6 Xposition Yposition Zposition Xrotation Zrotation Yrotation
	JOINT abdomen
	{
		OFFSET	0.000000 1.799998 0.000000
		CHANNELS 3 Xrotation Zrotation Yrotation
		JOINT chest
		{
			OFFSET	0.000000 4.464001 -0.360000
			CHANNELS 3 Xrotation Zrotation Yrotation
			JOINT neck
			{
				OFFSET	0.000000 5.400002 -0.144000
				CHANNELS 3 Xrotation Zrotation Yrotation
				JOINT head
				{
					OFFSET	0.000000 1.655998 0.000000
					CHANNELS 3 Xrotation Zrotation Yrotation
				}
			}
			JOINT lCollar
			{
				OFFSET	1.800000 3.528000 -0.432000
				CHANNELS 3 Yrotation Zrotation Xrotation
				JOINT lShldr
				{
					OFFSET	1.728000 0.000000 0.000000
					CHANNELS 3 Zrotation Yrotation Xrotation
					JOINT lForeArm
					{
						OFFSET	5.328000 0.000000 0.000000
						CHANNELS 3 Yrotation Zrotation Xrotation
						JOINT lHand
						{
							OFFSET	4.464000 0.000000 0.000000
							CHANNELS 3 Zrotation Yrotation Xrotation
						}
					}
				}
			}
			JOINT rCollar
			{
				OFFSET	-1.872000 3.528000 -0.432000
				CHANNELS 3 Yrotation Zrotation Xrotation
				JOINT rShldr
				{
					OFFSET	-1.656000 0.000000 0.000000
					CHANNELS 3 Zrotation Yrotation Xrotation
					JOINT rForeArm
					{
						OFFSET	-5.400000 0.000000 0.000000
						CHANNELS 3 Yrotation Zrotation Xrotation
						JOINT rHand
						{
							OFFSET	-4.392000 0.000000 0.000000
							CHANNELS 3 Zrotation Yrotation Xrotation
						}
					}
				}
			}
		}
	}
	JOINT lThigh
	{
		OFFSET	2.808000 -0.864002 0.720000
		CHANNELS 3 Xrotation Zrotation Yrotation
		JOINT lShin
		{
			OFFSET	-1.080000 -10.583999 0.000000
			CHANNELS 3 Xrotation Zrotation Yrotation
			JOINT lFoot
			{
				OFFSET	0.000000 -10.152000 -0.648000
				CHANNELS 3 Xrotation Yrotation Zrotation
				End Site
				{
					OFFSET 0.000000 -1.296000 2.448000
				}
			}
		}
	}
	JOINT rThigh
	{
		OFFSET	-2.808000 -0.864002 0.720000
		CHANNELS 3 Xrotation Zrotation Yrotation
		JOINT rShin
		{
			OFFSET	1.080000 -10.583999 0.000000
			CHANNELS 3 Xrotation Zrotation Yrotation
			JOINT rFoot
			{
				OFFSET	0.000000 -10.152000 -0.648000
				CHANNELS 3 Xrotation Yrotation Zrotation
				End Site
				{
					OFFSET 0.000000 -1.296000 2.448000
				}
			}
		}
	}
}
MOTION
Frames:     19
Frame Time: 0.033333
0.000000 23.151886 0.000000 0.000000 0.000000 0.000000 0.000000 0.000000 0.000000 0.000000 0.000000 0.000000 0.000000 0.000000 0.000000 0.000000 0.000000 0.000000 -0.000206 -0.010520 0.000000 -0.017743 -0.002174 0.000000 0.000000 0.000000 0.000000 0.000000 0.000000 0.000000 9.990230 0.000000 0.000000 0.000000 0.000000 0.000000 0.000000 0.000000 0.000000 0.000000 0.000000 0.000000 0.000000 0.000000 0.000000 0.009766 0.000000 0.000000 -0.097656 0.000000 0.000000 0.000000 -0.019531 0.000000 0.009766 0.019531 -0.009766 0.166016 0.009766 0.000000 
0.000000 23.151886 0.000000 0.000000 0.000000 0.000000 -0.156200 -0.208300 -0.124900 -0.623400 -0.541500 -0.618600 -1.046900 0.182600 -0.705100 0.000000 0.000000 0.000000 2.048500 -3.376600 0.010400 -69.833900 1.201100 12.783100 -12.658600 1.798100 5.896600 -7.000000 0.000000 0.000000 6.489700 9.932400 -1.127700 58.869202 -0.178200 10.429600 -0.235600 1.080800 1.992700 7.000000 0.000000 0.000000 0.000000 0.000000 0.000000 0.009766 0.000000 0.000000 -0.097656 0.000000 0.000000 0.000000 -0.019531 0.000000 0.009766 0.019531 -0.009766 0.166016 0.009766 0.000000 
0.000000 23.151886 0.000000 0.000000 0.000000 0.000000 -0.156203 -0.208301 -0.124898 -0.623405 -0.541497 -0.618595 -1.046894 0.182597 -0.705099 0.000000 0.000000 0.000000 2.048505 -3.376598 0.010403 -69.833893 1.201096 12.783103 -12.658596 1.798097 5.896604 -7.000000 0.000000 0.000000 6.489706 9.932404 -1.127706 58.869198 -0.178205 10.429598 -0.235595 1.080793 1.992698 7.000000 0.000000 0.000000 0.000000 0.000000 0.000000 0.009766 0.000000 0.000000 -0.097656 0.000000 0.000000 0.000000 -0.019531 0.000000 0.009766 0.019531 -0.009766 0.166016 0.009766 0.000000 
0.000000 23.151886 0.000000 0.000000 0.000000 0.000000 -0.156206 -0.208301 -0.124896 -0.623410 -0.541495 -0.618590 -1.046888 0.182593 -0.705097 0.000000 0.000000 0.000000 2.048510 -3.376595 0.010407 -69.833885 1.201091 12.783106 -12.658592 1.798093 5.896608 -7.000000 0.000000 0.000000 6.489712 9.932407 -1.127711 58.869194 -0.178211 10.429596 -0.235589 1.080787 1.992696 7.000000 0.000000 0.000000 0.000000 0.000000 0.000000 0.009766 0.000000 0.000000 -0.097656 0.000000 0.000000 0.000000 -0.019531 0.000000 0.009766 0.019531 -0.009766 0.166016 0.009766 0.000000 
0.000000 23.151886 0.000000 0.000000 0.000000 0.000000 -0.156209 -0.208302 -0.124894 -0.623414 -0.541492 -0.618584 -1.046882 0.182590 -0.705096 0.000000 0.000000 0.000000 2.048515 -3.376593 0.010410 -69.833878 1.201087 12.783109 -12.658588 1.798090 5.896613 -7.000000 0.000000 0.000000 6.489718 9.932411 -1.127717 58.869190 -0.178216 10.429594 -0.235584 1.080780 1.992694 7.000000 0.000000 0.000000 0.000000 0.000000 0.000000 0.009766 0.000000 0.000000 -0.097656 0.000000 0.000000 0.000000 -0.019531 0.000000 0.009766 0.019531 -0.009766 0.166016 0.009766 0.000000 
0.000000 23.151886 0.000000 0.000000 0.000000 0.000000 -0.156212 -0.208303 -0.124892 -0.623419 -0.541489 -0.618579 -1.046876 0.182587 -0.705094 0.000000 0.000000 0.000000 2.048520 -3.376591 0.010414 -69.833878 1.201083 12.783112 -12.658585 1.798087 5.896617 -7.000000 0.000000 0.000000 6.489724 9.932415 -1.127723 58.869186 -0.178221 10.429592 -0.235579 1.080773 1.992692 7.000000 0.000000 0.000000 0.000000 0.000000 0.000000 0.009766 0.000000 0.000000 -0.097656 0.000000 0.000000 0.000000 -0.019531 0.000000 0.009766 0.019531 -0.009766 0.166016 0.009766 0.000000 
0.000000 23.151886 0.000000 0.000000 0.000000 0.000000 -0.156215 -0.208304 -0.124890 -0.623424 -0.541487 -0.618574 -1.046870 0.182583 -0.705092 0.000000 0.000000 0.000000 2.048525 -3.376589 0.010417 -69.833870 1.201078 12.783114 -12.658580 1.798083 5.896621 -7.000000 0.000000 0.000000 6.489730 9.932419 -1.127728 58.869179 -0.178227 10.429590 -0.235574 1.080767 1.992690 7.000000 0.000000 0.000000 0.000000 0.000000 0.000000 0.009766 0.000000 0.000000 -0.097656 0.000000 0.000000 0.000000 -0.019531 0.000000 0.009766 0.019531 -0.009766 0.166016 0.009766 0.000000 
0.000000 23.151886 0.000000 0.000000 0.000000 0.000000 -0.156218 -0.208304 -0.124888 -0.623429 -0.541484 -0.618569 -1.046864 0.182580 -0.705091 0.000000 0.000000 0.000000 2.048530 -3.376586 0.010421 -69.833862 1.201074 12.783117 -12.658575 1.798080 5.896626 -7.000000 0.000000 0.000000 6.489737 9.932423 -1.127734 58.869171 -0.178232 10.429588 -0.235568 1.080760 1.992688 7.000000 0.000000 0.000000 0.000000 0.000000 0.000000 0.009766 0.000000 0.000000 -0.097656 0.000000 0.000000 0.000000 -0.019531 0.000000 0.009766 0.019531 -0.009766 0.166016 0.009766 0.000000 
0.000000 23.151886 0.000000 0.000000 0.000000 0.000000 -0.156222 -0.208305 -0.124886 -0.623433 -0.541481 -0.618564 -1.046857 0.182576 -0.705089 0.000000 0.000000 0.000000 2.048534 -3.376584 0.010424 -69.833862 1.201070 12.783120 -12.658571 1.798077 5.896629 -7.000000 0.000000 0.000000 6.489742 9.932427 -1.127739 58.869167 -0.178238 10.429586 -0.235563 1.080753 1.992687 7.000000 0.000000 0.000000 0.000000 0.000000 0.000000 0.009766 0.000000 0.000000 -0.097656 0.000000 0.000000 0.000000 -0.019531 0.000000 0.009766 0.019531 -0.009766 0.166016 0.009766 0.000000 
0.000000 23.151886 0.000000 0.000000 0.000000 0.000000 -0.056127 -0.211564 -0.198387 -0.118250 -0.206147 -0.554582 -1.044515 0.173448 -0.740760 -0.335186 -0.245448 -0.153944 1.747077 -5.074906 0.870574 -67.509201 -0.734652 12.657703 -17.197861 2.198317 4.192836 -7.662405 1.125000 -0.001122 8.080256 11.476225 -1.377504 55.914085 -0.122998 12.758706 7.343011 0.320659 -0.166103 8.079889 -0.874580 0.952421 0.000000 0.000000 0.000000 0.009766 0.000000 0.000000 -0.097656 0.000000 0.000000 0.000000 -0.019531 0.000000 0.009766 0.019531 -0.009766 0.166016 0.009766 0.000000 
0.000000 23.151886 0.000000 0.000000 0.000000 0.000000 0.043967 -0.214823 -0.271887 0.386934 0.129188 -0.490600 -1.042172 0.164319 -0.776430 -0.670372 -0.490896 -0.307889 1.445620 -6.773229 1.730723 -65.184540 -2.670374 12.532286 -21.737152 2.598557 2.489043 -8.324810 2.250000 -0.002244 9.670769 13.020022 -1.627270 52.959003 -0.067758 15.087826 14.921585 -0.439435 -2.324893 9.159779 -1.749160 1.904842 0.000000 0.000000 0.000000 0.009766 0.000000 0.000000 -0.097656 0.000000 0.000000 0.000000 -0.019531 0.000000 0.009766 0.019531 -0.009766 0.166016 0.009766 0.000000 
0.000000 23.151886 0.000000 0.000000 0.000000 0.000000 0.144061 -0.218081 -0.345387 0.892117 0.464523 -0.426619 -1.039829 0.155190 -0.812101 -1.005557 -0.736345 -0.461833 1.144162 -8.471551 2.590873 -62.859882 -4.606096 12.406868 -26.276443 2.998798 0.785250 -8.987215 3.375000 -0.003365 11.261282 14.563820 -1.877035 51.401684 -0.012519 17.416946 22.500160 -1.199529 -4.483683 10.239668 -2.623740 2.857263 0.000000 0.000000 0.000000 0.009766 0.000000 0.000000 -0.097656 0.000000 0.000000 0.000000 -0.019531 0.000000 0.009766 0.019531 -0.009766 0.166016 0.009766 0.000000 
0.000000 23.151886 0.000000 0.000000 0.000000 0.000000 0.244155 -0.221340 -0.418888 1.397301 0.799858 -0.362637 -1.037486 0.146061 -0.847772 -1.340743 -0.981793 -0.615777 0.842705 -10.169873 3.451022 -61.578197 -6.541818 12.281451 -30.815735 3.399038 -0.918543 -9.649620 4.500000 -0.004487 12.851795 16.107618 -2.126800 51.019897 0.042721 19.746065 30.078735 -1.959623 -6.642472 11.319557 -3.498320 3.809684 0.000000 0.000000 0.000000 0.009766 0.000000 0.000000 -0.097656 0.000000 0.000000 0.000000 -0.019531 0.000000 0.009766 0.019531 -0.009766 0.166016 0.009766 0.000000 
0.000000 23.151886 0.000000 0.000000 0.000000 0.000000 0.344249 -0.224599 -0.492388 1.902484 1.135193 -0.298655 -1.035143 0.136932 -0.883442 -1.675929 -1.227241 -0.769722 0.541247 -11.868196 4.311171 -61.085400 -8.477540 12.156034 -35.355026 3.799279 -2.622335 -10.312025 5.625000 -0.005609 14.442308 17.651417 -2.376565 51.599983 0.097961 22.075184 37.657310 -2.719718 -8.801262 12.399446 -4.372900 4.762105 0.000000 0.000000 0.000000 0.009766 0.000000 0.000000 -0.097656 0.000000 0.000000 0.000000 -0.019531 0.000000 0.009766 0.019531 -0.009766 0.166016 0.009766 0.000000 
0.000000 23.151886 0.000000 0.000000 0.000000 0.000000 0.444343 -0.227858 -0.565888 2.407668 1.470527 -0.234674 -1.032800 0.127804 -0.919113 -2.011115 -1.472689 -0.923666 0.239790 -13.566518 5.171320 -61.179413 -10.413262 12.030617 -39.894318 4.199519 -4.326128 -10.974430 6.750000 -0.006731 16.032822 19.195213 -2.626330 52.928280 0.153200 24.404305 45.235886 -3.479812 -10.960052 13.479336 -5.247480 5.714526 0.000000 0.000000 0.000000 0.009766 0.000000 0.000000 -0.097656 0.000000 0.000000 0.000000 -0.019531 0.000000 0.009766 0.019531 -0.009766 0.166016 0.009766 0.000000 
0.000000 23.151886 0.000000 0.000000 0.000000 0.000000 0.544437 -0.231117 -0.639389 2.912851 1.805862 -0.170692 -1.030457 0.118675 -0.954783 -2.346300 -1.718137 -1.077611 -0.061667 -15.264841 6.031470 -61.658150 -12.348984 11.905199 -44.433609 4.599760 -6.029922 -11.636835 7.875000 -0.007852 17.623335 20.739010 -2.876095 54.791134 0.208440 26.733425 52.814461 -4.239906 -13.118841 14.559225 -6.122061 6.666946 0.000000 0.000000 0.000000 0.009766 0.000000 0.000000 -0.097656 0.000000 0.000000 0.000000 -0.019531 0.000000 0.009766 0.019531 -0.009766 0.166016 0.009766 0.000000 
0.000000 23.151886 0.000000 0.000000 0.000000 0.000000 0.644531 -0.234375 -0.712889 3.418035 2.141197 -0.106710 -1.028115 0.109546 -0.990454 -2.681486 -1.963585 -1.231555 -2.976599 -16.963163 6.891619 -62.319542 -14.284706 11.779782 -48.972897 5.000000 -7.733714 -12.299240 9.000000 -0.008974 19.213848 22.282808 -3.125860 56.974880 0.263679 29.062544 60.393032 -5.000000 -15.277631 15.639114 -6.996641 7.619368 0.000000 0.000000 0.000000 0.009766 0.000000 0.000000 -0.097656 0.000000 0.000000 0.000000 -0.019531 0.000000 0.009766 0.019531 -0.009766 0.166016 0.009766 0.000000 
0.000000 23.151886 0.000000 0.000000 0.000000 0.000000 0.721282 -0.230437 -0.741074 4.043533 2.308409 -0.060794 -1.025772 0.100417 -1.026124 -3.182690 -2.164836 -1.425819 -6.922344 -15.368750 7.294065 -62.994720 -16.189987 11.630602 -51.109501 5.000000 -8.993320 -12.299240 9.000000 -0.008974 20.153666 20.425907 -3.222077 59.293388 1.212648 30.000000 64.435242 -5.000000 -16.673395 16.011955 -7.410143 8.182033 0.000000 0.000000 0.000000 0.009766 0.000000 0.000000 -0.097656 0.000000 0.000000 0.000000 -0.019531 0.000000 0.009766 0.019531 -0.009766 0.166016 0.009766 0.000000 
0.000000 23.151886 0.000000 0.000000 0.000000 0.000000 0.801638 -0.215673 -0.721263 5.093544 2.324401 -0.019000 -1.023429 0.091288 -1.061795 -4.115639 -2.393659 -1.755969 -10.459637 -13.774336 7.261954 -63.647778 -18.879663 11.385528 -50.975323 4.676175 -10.208209 -12.299240 9.000000 -0.008974 20.635199 18.569006 -3.155680 61.670570 3.759074 29.692148 65.524582 -5.000000 -17.659176 15.605546 -7.389391 8.470074 0.000000 0.000000 0.000000 0.009766 0.000000 0.000000 -0.097656 0.000000 0.000000 0.000000 -0.019531 0.000000 0.009766 0.019531 -0.009766 0.166016 0.009766 0.000000 
